<?xml version="1.0" encoding="UTF-8"?>
<svg id="Layer_1" data-name="Layer 1" xmlns="http://www.w3.org/2000/svg" xmlns:xlink="http://www.w3.org/1999/xlink" viewBox="0 0 204.26 84">
  <defs>
    <style>
      .cls-1 {
        fill: url(#linear-gradient);
      }

      .cls-2 {
        fill: #999;
      }

      .cls-3 {
        fill: #333;
      }

      .cls-4 {
        font-family: Inter-Medium, Inter;
        font-size: 48px;
        font-variation-settings: 'wght' 500, 'slnt' 0;
        font-weight: 500;
      }

      .cls-5 {
        letter-spacing: -.07em;
      }

      .cls-6 {
        letter-spacing: -.06em;
      }

      .cls-7 {
        fill: url(#linear-gradient-2);
      }

      .cls-8 {
        letter-spacing: -.06em;
      }

      .cls-9 {
        letter-spacing: -.06em;
      }

      .cls-10 {
        letter-spacing: -.07em;
      }

      .cls-11 {
        letter-spacing: -.08em;
      }

      .cls-12 {
        letter-spacing: -.07em;
      }

      .cls-13 {
        letter-spacing: -.07em;
      }
    </style>
    <linearGradient id="linear-gradient" x1="24" y1="89.77" x2="24" y2="-12.52" gradientUnits="userSpaceOnUse">
      <stop offset=".05" stop-color="#2e3192"/>
      <stop offset=".88" stop-color="#ed1c24"/>
    </linearGradient>
    <linearGradient id="linear-gradient-2" x1="200.26" y1="112.06" x2="200.26" y2="-20.2" gradientUnits="userSpaceOnUse">
      <stop offset="0" stop-color="#2e3192"/>
      <stop offset="0" stop-color="#33308f"/>
      <stop offset=".04" stop-color="#632b72"/>
      <stop offset=".09" stop-color="#8e265a"/>
      <stop offset=".13" stop-color="#b02246"/>
      <stop offset=".17" stop-color="#cb1f37"/>
      <stop offset=".21" stop-color="#dd1d2c"/>
      <stop offset=".26" stop-color="#e91c26"/>
      <stop offset=".3" stop-color="#ed1c24"/>
    </linearGradient>
  </defs>
  <path class="cls-1" d="m38.35,42.73c-2.94-1.74-11.1-3.8-14.35-4.55-4.15-.96-9.9-4.56-7.38-10.41,1.06-2.46,3.3-4.34,6.06-4.76,5-.76,9.31,2.89,9.32,7.51,0,.01,0,.02.02.02h11.18c0-10.12-8.6-18.33-19.2-18.33-.58,0-1.16.02-1.72.07-4.24.36-8.08,2.03-11.08,4.59v-6.19C11.2,4.79,6.2.01.03,0,.01,0,0,0,0,.02v60.74c0,13.13,11.4,23.82,25.14,23.21,12.73-.57,22.86-10.6,22.86-22.88,0-7.52-3.44-14.68-9.65-18.36Zm-14.35,30.58c-7.07,0-12.8-5.47-12.8-12.22v-16.85s.01-.03.03-.02c.67.21,13.44,4.12,17.05,5.36,3.7,1.27,8.25,4.8,8.52,11.52s-5.93,12.22-12.8,12.22Z"/>
  <text class="cls-4" transform="translate(52.68 47.39)"><tspan class="cls-3"><tspan class="cls-13" x="0" y="0"></tspan><tspan class="cls-5" x="9.69" y="0">ee</tspan></tspan><tspan class="cls-2"><tspan class="cls-8" x="0" y="36">s</tspan><tspan class="cls-11" x="22.69" y="36">a</tspan><tspan class="cls-6" x="46.38" y="36">n</tspan><tspan class="cls-12" x="72.06" y="36">t</tspan><tspan class="cls-10" x="86.75" y="36">o</tspan><tspan class="cls-9" x="112.44" y="36">s</tspan></tspan></text>
  <circle class="cls-7" cx="200.26" cy="79.39" r="4"/>
</svg>