<?xml version="1.0" encoding="UTF-8"?>
<svg id="Layer_1" data-name="Layer 1" xmlns="http://www.w3.org/2000/svg" viewBox="0 0 48 84">
  <defs>
    <style>
      .cls-1 {
        fill: #fff;
      }
    </style>
  </defs>
  <path class="cls-1" d="m38.35,42.73c-2.94-1.74-11.1-3.8-14.35-4.55-4.15-.96-9.9-4.56-7.38-10.41,1.06-2.46,3.3-4.34,6.06-4.76,5-.76,9.31,2.89,9.32,7.51,0,.01,0,.02.02.02h11.18c0-10.12-8.6-18.33-19.2-18.33-.58,0-1.16.02-1.72.07-4.24.36-8.08,2.03-11.08,4.59v-6.19C11.2,4.79,6.2.01.02,0,.01,0,0,0,0,.02v60.74c0,13.13,11.4,23.82,25.14,23.21,12.73-.57,22.86-10.6,22.86-22.88,0-7.52-3.44-14.68-9.65-18.36Zm-14.35,30.58c-7.07,0-12.8-5.47-12.8-12.22v-16.85s.01-.03.03-.02c.67.21,13.44,4.12,17.05,5.36,3.7,1.27,8.25,4.8,8.52,11.52s-5.93,12.22-12.8,12.22Z"/>
</svg>