<?xml version="1.0" encoding="UTF-8"?>
<svg id="Layer_1" data-name="Layer 1" xmlns="http://www.w3.org/2000/svg" xmlns:xlink="http://www.w3.org/1999/xlink" viewBox="0 0 96 96">
  <defs>
    <style>
      .cls-1 {
        fill: url(#linear-gradient);
      }

      .cls-2 {
        fill: #fff;
      }

      .cls-3 {
        fill: url(#linear-gradient-2);
      }
    </style>
    <linearGradient id="linear-gradient" x1="48" y1="77.84" x2="48" y2="46.1" gradientUnits="userSpaceOnUse">
      <stop offset=".05" stop-color="#2e368f"/>
      <stop offset=".9" stop-color="#ed1c24"/>
    </linearGradient>
    <linearGradient id="linear-gradient-2" x1="48" y1="96.91" x2="48" y2="-7.82" xlink:href="#linear-gradient"/>
  </defs>
  <rect class="cls-2" x="0" y="0" width="96" height="96" rx="8" ry="8"/>
  <g>
    <path class="cls-1" d="m51.83,54.79c-3.23-1.11-14.68-4.61-15.28-4.8-.01,0-.02,0-.02.02v15.1c0,6.04,5.13,10.95,11.47,10.95s11.7-5.08,11.47-10.95c-.24-6.01-4.32-9.18-7.63-10.32Z"/>
    <path class="cls-3" d="m5,12.17v71.67c0,3.96,3.21,7.17,7.17,7.17h71.67c3.96,0,7.17-3.21,7.17-7.17V12.17c0-3.96-3.21-7.17-7.17-7.17H12.17c-3.96,0-7.17,3.21-7.17,7.17Zm44.02,73.44c-12.31.55-22.52-9.03-22.52-20.79V10.39s0-.02.02-.02c5.53.01,10.01,4.29,10.01,9.58v5.55c2.68-2.29,6.13-3.79,9.92-4.11.51-.04,1.02-.07,1.55-.07,9.5,0,17.2,7.35,17.2,16.42h-10.01s-.02,0-.02-.02c-.01-4.14-3.88-7.41-8.35-6.73-2.47.38-4.48,2.05-5.43,4.26-2.26,5.24,2.89,8.47,6.62,9.33,2.91.67,10.22,2.51,12.85,4.07,5.56,3.3,8.65,9.72,8.65,16.45,0,11.01-9.08,19.99-20.48,20.5Z"/>
  </g>
</svg>