<?xml version="1.0" encoding="UTF-8"?>
<svg id="Layer_1" data-name="Layer 1" xmlns="http://www.w3.org/2000/svg" xmlns:xlink="http://www.w3.org/1999/xlink" viewBox="0 0 204.26 84">
  <defs>
    <style>
      .cls-1 {
        fill: url(#linear-gradient);
      }

      .cls-2 {
        fill: #999;
      }

      .cls-3 {
        fill: #333;
      }

      .cls-4 {
        fill: url(#linear-gradient-2);
      }
    </style>
    <linearGradient id="linear-gradient" x1="24" y1="89.77" x2="24" y2="-12.52" gradientUnits="userSpaceOnUse">
      <stop offset=".05" stop-color="#2e368f"/>
      <stop offset=".9" stop-color="#ed1c24"/>
    </linearGradient>
    <linearGradient id="linear-gradient-2" x1="200.26" y1="112.06" x2="200.26" y2="-20.2" gradientUnits="userSpaceOnUse">
      <stop offset="0" stop-color="#2e3192"/>
      <stop offset="0" stop-color="#33308f"/>
      <stop offset=".04" stop-color="#632b72"/>
      <stop offset=".09" stop-color="#8e265a"/>
      <stop offset=".13" stop-color="#b02246"/>
      <stop offset=".17" stop-color="#cb1f37"/>
      <stop offset=".21" stop-color="#dd1d2c"/>
      <stop offset=".26" stop-color="#e91c26"/>
      <stop offset=".3" stop-color="#ed1c24"/>
    </linearGradient>
  </defs>
  <path class="cls-1" d="m38.35,42.73c-2.94-1.74-11.1-3.8-14.35-4.55-4.15-.96-9.9-4.56-7.38-10.41,1.06-2.46,3.3-4.34,6.06-4.76,5-.76,9.31,2.89,9.32,7.51,0,.01,0,.02.02.02h11.18c0-10.12-8.6-18.33-19.2-18.33-.58,0-1.16.02-1.72.07-4.24.36-8.08,2.03-11.08,4.59v-6.19C11.2,4.79,6.2.01.03,0,.01,0,0,0,0,.02v60.74c0,13.13,11.4,23.82,25.14,23.21,12.73-.57,22.86-10.6,22.86-22.88,0-7.52-3.44-14.68-9.65-18.36Zm-14.35,30.58c-7.07,0-12.8-5.47-12.8-12.22v-16.85s.01-.03.03-.02c.67.21,13.44,4.12,17.05,5.36,3.7,1.27,8.25,4.8,8.52,11.52s-5.93,12.22-12.8,12.22Z"/>
  <g>
    <path class="cls-3" d="m56.11,12.48h5.1v27.75c0,1.12.15,1.92.43,2.39.29.47.84.69,1.66.66.44-.01.78-.04,1-.08.22-.04.42-.1.61-.15l.92,4.07c-.35.1-.8.2-1.34.3s-1.15.15-1.83.16c-2.21.03-3.85-.49-4.93-1.57-1.08-1.08-1.62-2.65-1.62-4.72V12.48Z"/>
    <path class="cls-3" d="m77.08,47.92c-2.58,0-4.8-.55-6.66-1.66-1.86-1.11-3.29-2.67-4.29-4.69-1.01-2.02-1.51-4.38-1.51-7.1s.5-5.04,1.51-7.09c1.01-2.04,2.41-3.64,4.23-4.79,1.81-1.15,3.93-1.72,6.37-1.72,1.48,0,2.91.24,4.29.73,1.39.49,2.63,1.26,3.73,2.3,1.1,1.04,1.97,2.4,2.61,4.07.64,1.66.96,3.68.96,6.06v1.81h-20.81v-3.82h15.82c0-1.34-.27-2.53-.82-3.57-.55-1.04-1.31-1.86-2.29-2.46-.98-.6-2.13-.9-3.45-.9-1.43,0-2.68.35-3.74,1.05-1.06.7-1.88,1.61-2.45,2.73-.57,1.12-.86,2.33-.86,3.64v2.98c0,1.75.31,3.24.93,4.47.62,1.23,1.49,2.16,2.6,2.8,1.11.64,2.41.96,3.9.96.97,0,1.85-.14,2.64-.42.79-.28,1.48-.7,2.06-1.25.58-.56,1.02-1.24,1.33-2.06l4.82.87c-.39,1.42-1.08,2.66-2.07,3.72-.99,1.06-2.24,1.89-3.73,2.47s-3.2.88-5.11.88Z"/>
    <path class="cls-3" d="m101.77,47.92c-2.58,0-4.8-.55-6.66-1.66-1.86-1.11-3.29-2.67-4.29-4.69-1.01-2.02-1.51-4.38-1.51-7.1s.5-5.04,1.51-7.09c1.01-2.04,2.41-3.64,4.23-4.79,1.81-1.15,3.93-1.72,6.37-1.72,1.48,0,2.91.24,4.29.73,1.39.49,2.63,1.26,3.73,2.3,1.1,1.04,1.97,2.4,2.61,4.07.64,1.66.96,3.68.96,6.06v1.81h-20.81v-3.82h15.82c0-1.34-.27-2.53-.82-3.57-.55-1.04-1.31-1.86-2.29-2.46-.98-.6-2.13-.9-3.45-.9-1.43,0-2.68.35-3.74,1.05-1.06.7-1.88,1.61-2.45,2.73-.57,1.12-.86,2.33-.86,3.64v2.98c0,1.75.31,3.24.93,4.47.62,1.23,1.49,2.16,2.6,2.8,1.11.64,2.41.96,3.9.96.97,0,1.85-.14,2.64-.42.79-.28,1.48-.7,2.06-1.25.58-.56,1.02-1.24,1.33-2.06l4.82.87c-.39,1.42-1.08,2.66-2.07,3.72-.99,1.06-2.24,1.89-3.73,2.47s-3.2.88-5.11.88Z"/>
    <path class="cls-2" d="m75.73,63.6l-4.62.82c-.19-.59-.5-1.15-.91-1.69-.42-.53-.97-.97-1.68-1.31-.7-.34-1.58-.51-2.64-.51-1.44,0-2.65.32-3.61.96-.97.64-1.45,1.47-1.45,2.48,0,.88.32,1.58.97,2.11.65.53,1.69.97,3.14,1.31l4.16.95c2.41.56,4.21,1.42,5.39,2.57s1.77,2.67,1.77,4.52c0,1.57-.45,2.96-1.35,4.18-.9,1.22-2.16,2.18-3.77,2.87-1.61.69-3.47,1.04-5.58,1.04-2.93,0-5.32-.63-7.18-1.88-1.85-1.25-2.99-3.04-3.41-5.36l4.93-.75c.31,1.28.94,2.25,1.89,2.91.96.65,2.2.98,3.73.98,1.67,0,3.01-.35,4.01-1.05,1-.7,1.5-1.55,1.5-2.57,0-.82-.3-1.51-.91-2.06-.61-.56-1.54-.98-2.79-1.26l-4.43-.97c-2.44-.56-4.25-1.44-5.41-2.66s-1.75-2.76-1.75-4.62c0-1.55.43-2.9,1.29-4.06.86-1.16,2.06-2.06,3.58-2.72,1.52-.65,3.27-.98,5.23-.98,2.83,0,5.06.61,6.68,1.83,1.62,1.22,2.7,2.86,3.22,4.9Z"/>
    <path class="cls-2" d="m86.42,83.97c-1.66,0-3.16-.31-4.5-.93-1.34-.62-2.4-1.52-3.18-2.7s-1.17-2.63-1.17-4.35c0-1.48.28-2.69.85-3.65.57-.95,1.34-1.71,2.3-2.27s2.04-.98,3.24-1.26c1.19-.28,2.41-.5,3.65-.65,1.57-.18,2.84-.33,3.82-.45.98-.12,1.69-.32,2.13-.59.44-.27.67-.72.67-1.33v-.12c0-1.49-.42-2.64-1.25-3.46-.83-.82-2.08-1.23-3.72-1.23s-3.07.38-4.05,1.13c-.98.76-1.66,1.59-2.04,2.51l-4.79-1.09c.57-1.59,1.4-2.88,2.5-3.86,1.1-.98,2.36-1.7,3.79-2.15,1.43-.45,2.94-.67,4.52-.67,1.05,0,2.16.12,3.33.37,1.18.24,2.28.69,3.31,1.34,1.03.65,1.87,1.57,2.53,2.77.66,1.2.99,2.75.99,4.66v17.39h-4.98v-3.58h-.2c-.33.66-.82,1.31-1.48,1.94-.66.64-1.51,1.17-2.54,1.59-1.03.42-2.27.63-3.72.63Zm1.11-4.09c1.41,0,2.62-.28,3.62-.83s1.77-1.29,2.3-2.19c.53-.9.79-1.87.79-2.91v-3.38c-.18.18-.53.35-1.05.5-.52.15-1.11.28-1.76.39-.66.11-1.3.2-1.93.29-.62.09-1.15.16-1.57.21-.99.13-1.89.34-2.7.63-.81.3-1.46.72-1.94,1.27-.48.55-.72,1.28-.72,2.19,0,1.26.47,2.21,1.4,2.85.93.64,2.12.96,3.56.96Z"/>
    <path class="cls-2" d="m107.58,67.84v15.55h-5.1v-26.18h4.89v4.26h.32c.6-1.39,1.55-2.5,2.84-3.34,1.29-.84,2.92-1.26,4.88-1.26,1.78,0,3.35.37,4.69,1.12s2.38,1.85,3.12,3.32c.74,1.47,1.11,3.28,1.11,5.44v16.65h-5.1v-16.04c0-1.9-.49-3.38-1.48-4.46-.99-1.07-2.35-1.61-4.07-1.61-1.18,0-2.23.26-3.14.77-.92.51-1.64,1.26-2.17,2.24-.53.98-.79,2.17-.79,3.55Z"/>
    <path class="cls-2" d="m140.39,57.21v4.09h-14.3v-4.09h14.3Zm-10.47-6.27h5.1v24.77c0,.99.15,1.73.44,2.22.29.49.68.83,1.15,1.01.47.18.99.26,1.54.26.41,0,.77-.03,1.07-.08.31-.06.55-.1.72-.14l.92,4.21c-.3.11-.72.23-1.26.35-.54.12-1.23.18-2.04.2-1.34.02-2.59-.22-3.75-.72s-2.1-1.27-2.81-2.32c-.72-1.04-1.07-2.36-1.07-3.94v-25.82Z"/>
    <path class="cls-2" d="m153.89,83.92c-2.45,0-4.6-.56-6.43-1.69-1.83-1.12-3.25-2.7-4.26-4.72-1.01-2.02-1.52-4.39-1.52-7.09s.51-5.09,1.52-7.12c1.01-2.03,2.43-3.61,4.26-4.74,1.83-1.12,3.97-1.69,6.43-1.69s4.6.56,6.43,1.69c1.83,1.12,3.25,2.7,4.26,4.74,1.01,2.03,1.52,4.41,1.52,7.12s-.51,5.07-1.52,7.09c-1.01,2.02-2.43,3.6-4.26,4.72-1.83,1.12-3.97,1.69-6.43,1.69Zm.02-4.28c1.59,0,2.91-.42,3.95-1.26,1.05-.84,1.82-1.96,2.33-3.36s.76-2.94.76-4.62-.25-3.21-.76-4.61-1.28-2.53-2.33-3.38c-1.04-.85-2.36-1.28-3.95-1.28s-2.93.43-3.98,1.28c-1.05.85-1.83,1.98-2.33,3.38s-.76,2.94-.76,4.61.25,3.22.76,4.62,1.28,2.52,2.33,3.36c1.05.84,2.38,1.26,3.98,1.26Z"/>
    <path class="cls-2" d="m188.17,63.6l-4.62.82c-.19-.59-.5-1.15-.91-1.69-.42-.53-.97-.97-1.68-1.31-.7-.34-1.58-.51-2.64-.51-1.44,0-2.65.32-3.61.96-.97.64-1.45,1.47-1.45,2.48,0,.88.32,1.58.97,2.11.65.53,1.69.97,3.14,1.31l4.16.95c2.41.56,4.21,1.42,5.39,2.57s1.77,2.67,1.77,4.52c0,1.57-.45,2.96-1.35,4.18-.9,1.22-2.16,2.18-3.77,2.87-1.61.69-3.47,1.04-5.58,1.04-2.93,0-5.32-.63-7.18-1.88-1.85-1.25-2.99-3.04-3.41-5.36l4.93-.75c.31,1.28.94,2.25,1.89,2.91.96.65,2.2.98,3.73.98,1.67,0,3.01-.35,4.01-1.05,1-.7,1.5-1.55,1.5-2.57,0-.82-.3-1.51-.91-2.06-.61-.56-1.54-.98-2.79-1.26l-4.43-.97c-2.44-.56-4.25-1.44-5.41-2.66s-1.75-2.76-1.75-4.62c0-1.55.43-2.9,1.29-4.06.86-1.16,2.06-2.06,3.58-2.72,1.52-.65,3.27-.98,5.23-.98,2.83,0,5.06.61,6.68,1.83,1.62,1.22,2.7,2.86,3.22,4.9Z"/>
  </g>
  <circle class="cls-4" cx="200.26" cy="79.39" r="4"/>
</svg>