<?xml version="1.0" encoding="UTF-8"?>
<svg id="Layer_1" data-name="Layer 1" xmlns="http://www.w3.org/2000/svg" xmlns:xlink="http://www.w3.org/1999/xlink" viewBox="0 0 100 175">
  <defs>
    <style>
      .cls-1 {
        fill: url(#linear-gradient);
      }
    </style>
    <linearGradient id="linear-gradient" x1="50" y1="187.03" x2="50" y2="-26.08" gradientUnits="userSpaceOnUse">
      <stop offset=".05" stop-color="#2e3192"/>
      <stop offset=".88" stop-color="#ed1c24"/>
    </linearGradient>
  </defs>
  <path class="cls-1" d="m79.89,89.01c-6.12-3.63-23.13-7.91-29.89-9.47-8.65-2-20.63-9.51-15.38-21.7,2.21-5.13,6.88-9.03,12.63-9.91,10.41-1.59,19.4,6.02,19.42,15.65,0,.02.02.04.05.04h23.29c0-21.09-17.91-38.18-40-38.18-1.21,0-2.41.05-3.59.15-8.83.75-16.83,4.23-23.07,9.56v-12.9C23.33,9.99,12.91.02.05,0,.02,0,0,.02,0,.05v126.55c0,27.35,23.75,49.63,52.37,48.35,26.51-1.18,47.63-22.07,47.63-47.67,0-15.66-7.17-30.59-20.11-38.26Zm-29.89,63.71c-14.73,0-26.67-11.4-26.67-25.45v-35.11s.03-.05.06-.04c1.4.43,28.01,8.59,35.53,11.16,7.71,2.64,17.19,10.01,17.75,23.99.55,13.64-12.35,25.45-26.67,25.45Z"/>
</svg>